<?xml version="1.0" standalone="no"?>
<!DOCTYPE svg PUBLIC "-//W3C//DTD SVG 20010904//EN"
 "http://www.w3.org/TR/2001/REC-SVG-20010904/DTD/svg10.dtd">
<svg version="1.0" xmlns="http://www.w3.org/2000/svg"
 width="140.000000pt" height="140.000000pt" viewBox="0 0 140.000000 140.000000"
 preserveAspectRatio="xMidYMid meet">
<metadata>
Created by potrace 1.14, written by Peter Selinger 2001-2017
</metadata>
<g transform="translate(0.000000,140.000000) scale(0.100000,-0.100000)"
fill="#000000" stroke="none">
<path d="M480 1137 c0 -5 -4 -6 -9 -3 -5 3 -23 -8 -40 -26 -29 -29 -33 -36
-30 -54 0 -4 -4 -10 -9 -13 -9 -5 -112 -177 -112 -186 0 -1 -25 -45 -56 -96
-32 -52 -57 -100 -57 -106 0 -7 -3 -13 -7 -13 -8 0 -74 -116 -71 -126 2 -4 -1
-10 -6 -13 -9 -7 -33 -42 -62 -94 -23 -41 -21 -95 3 -132 35 -53 36 -53 511
-50 242 1 454 6 470 10 17 4 37 8 45 9 8 1 29 10 46 19 17 9 34 13 38 10 3 -4
6 -1 6 5 0 7 7 12 15 12 8 0 15 5 15 10 0 6 5 10 11 10 6 0 17 7 26 15 8 8 19
13 24 9 5 -3 8 -2 7 3 -2 5 7 20 20 33 13 14 36 45 52 70 16 25 34 50 39 56 5
7 7 14 4 18 -3 3 -1 12 5 19 7 8 9 17 5 20 -3 4 -1 7 5 7 6 0 9 7 6 15 -3 8
-2 20 2 27 11 17 12 168 2 168 -4 0 -8 9 -8 20 0 12 -7 34 -15 50 -9 17 -13
30 -10 30 4 0 -3 14 -15 30 -12 17 -18 30 -13 30 4 0 0 5 -10 11 -9 6 -15 15
-11 20 3 5 2 8 -3 7 -4 -2 -9 0 -11 4 -5 16 -67 74 -75 71 -4 -3 -10 3 -13 11
-3 9 -10 14 -14 11 -5 -3 -11 -1 -15 5 -5 9 -41 27 -90 45 -57 22 -98 25 -353
28 -133 1 -242 -2 -242 -6z"/>
</g>
</svg>
