<svg xmlns="http://www.w3.org/2000/svg" version="1.1" xmlns:xlink="http://www.w3.org/1999/xlink" xmlns:svgjs="http://svgjs.dev/svgjs" viewBox="0 0 800 800" opacity="1"><defs><symbol id="bbburst-shape-1" viewBox="0 0 194 167"><path d="m97 0 96.129 166.5H.871L97 0Z"></path></symbol><symbol id="bbburst-shape-4" viewBox="0 0 149 143"><path d="M71.647 2.781c.898-2.764 4.808-2.764 5.706 0l15.445 47.534a3 3 0 0 0 2.853 2.073h49.98c2.906 0 4.115 3.719 1.764 5.427L106.96 87.193a2.999 2.999 0 0 0-1.09 3.354l15.445 47.534c.898 2.764-2.266 5.062-4.617 3.354l-40.435-29.378a3 3 0 0 0-3.526 0l-40.435 29.378c-2.351 1.708-5.515-.59-4.617-3.354L43.13 90.547a3 3 0 0 0-1.09-3.354L1.605 57.815c-2.35-1.708-1.142-5.427 1.764-5.427h49.98a3 3 0 0 0 2.853-2.073L71.647 2.781Z"></path></symbol><symbol id="bbburst-shape-6" viewBox="0 0 133 116"><path d="M59.7487 10.2513c-13.6683-13.66839-35.8291-13.66839-49.4974 0-13.66839 13.6683-13.66839 35.8291 0 49.4974l49.4974-49.4974ZM66.5 66.5 41.7513 91.2487 66.5 115.997l24.7487-24.7483L66.5 66.5Zm56.249-6.7513c13.668-13.6683 13.668-35.8291 0-49.4974-13.669-13.66839-35.8294-13.66839-49.4977 0l49.4977 49.4974Zm-112.4977 0 31.5 31.5 49.4974-49.4974-31.5-31.5-49.4974 49.4974Zm80.9974 31.5 31.5003-31.5-49.4977-49.4974-31.5 31.5 49.4974 49.4974Z"></path></symbol><symbol id="bbburst-shape-8" viewBox="0 0 87 168"><path d="m12 12 31.2546 18.0749c16.4102 9.4902 20.014 31.6325 7.4603 45.8369L36.3296 92.1884c-12.5684 14.2206-8.9394 36.3916 7.5068 45.8636L75 156" stroke-width="14" stroke-linecap="round" stroke-linejoin="round"></path></symbol><symbol id="bbburst-shape-10" viewBox="0 0 145 145"><circle cx="72.5" cy="72.5" r="61.5" fill="none" stroke-width="22"></circle></symbol></defs><use xlink:href="#bbburst-shape-4" width="42.52476634398083" opacity="0.2594742187147341" transform="matrix(0.9207940610756077,0.39004909574038243,-0.39004909574038243,0.9207940610756077,818.2915593797894,-154.3353401073647)" fill="#ffa6d5"></use><use xlink:href="#bbburst-shape-10" width="35.588399315236984" opacity="0.47658984613955513" transform="matrix(0.9758546494797457,-0.21842093097677878,0.21842093097677878,0.9758546494797457,111.37667748785252,160.7210359371274)" fill="none" stroke="#2c2891"></use><use xlink:href="#bbburst-shape-6" width="16.0859964016149" opacity="0.8329355306570043" transform="matrix(0.9722942601051888,0.23376028697472012,-0.23376028697472012,0.9722942601051888,424.3025728276293,52.609888725978465)" fill="#ffa6d5"></use><use xlink:href="#bbburst-shape-4" width="38.147071865459935" opacity="0.07706696521414769" transform="matrix(0.7968948874675205,-0.6041179837814198,0.6041179837814198,0.7968948874675205,352.77862683887327,451.34014934918747)" fill="#ffa6d5"></use><use xlink:href="#bbburst-shape-8" width="19.191766006030285" opacity="0.6976720904808262" transform="matrix(0.9584489778431382,0.2852640125768472,-0.2852640125768472,0.9584489778431382,566.8120612370527,-107.2651256018487)" fill="none" stroke="#ff5c58"></use><use xlink:href="#bbburst-shape-4" width="45.752907219820926" opacity="-0.07564940182029223" transform="matrix(0.8706808198306049,0.49184846241409125,-0.49184846241409125,0.8706808198306049,912.8878987249154,-307.83023308991596)" fill="#2c2891"></use><use xlink:href="#bbburst-shape-10" width="14.59292048820095" opacity="0.8263891286498256" transform="matrix(0.9669368586507708,0.2550159041757578,-0.2550159041757578,0.9669368586507708,432.7045464561707,-35.846267346573086)" fill="none" stroke="#ffa6d5"></use><use xlink:href="#bbburst-shape-8" width="36.663783983848276" opacity="0.461633263118435" transform="matrix(0.9437950280303192,0.3305313072391918,-0.3305313072391918,0.9437950280303192,757.163803277572,13.990661829199382)" fill="none" stroke="#2c2891"></use><use xlink:href="#bbburst-shape-10" width="39.29557950311456" opacity="0.3916130486179419" transform="matrix(0.7924647601537905,-0.6099177025750239,0.6099177025750239,0.7924647601537905,-116.07243040475788,190.61133121148896)" fill="none" stroke="#ffbd9b"></use><use xlink:href="#bbburst-shape-10" width="32.479042501608326" opacity="0.04966403494726479" transform="matrix(0.9727310119030125,0.2319361517360789,-0.2319361517360789,0.9727310119030125,125.30648711254449,-236.19581275172052)" fill="none" stroke="#2c2891"></use><use xlink:href="#bbburst-shape-10" width="34.06681686909984" opacity="0.09148330219484768" transform="matrix(0.9809906202885578,-0.19405515428833792,0.19405515428833792,0.9809906202885578,-50.28082811386043,212.01667091632027)" fill="none" stroke="#ffbd9b"></use><use xlink:href="#bbburst-shape-1" width="42.8777240106342" opacity="-0.07490028506663182" transform="matrix(0.8790579013424337,0.47671501558838714,-0.47671501558838714,0.8790579013424337,912.3124236756205,381.7619489617724)" fill="#ffa6d5"></use><use xlink:href="#bbburst-shape-6" width="15.516924406922978" opacity="0.7652605092291083" transform="matrix(0.8458839075258873,-0.53336705465255,0.53336705465255,0.8458839075258873,249.18722918198753,145.68417864392813)" fill="#ffa6d5"></use><use xlink:href="#bbburst-shape-4" width="19.648095744982903" opacity="0.6101312910044746" transform="matrix(0.7588453039056164,0.6512709150118655,-0.6512709150118655,0.7588453039056164,781.9073571049685,209.12845454945506)" fill="#ffbd9b"></use><use xlink:href="#bbburst-shape-4" width="16.63823672052745" opacity="0.9146514993012564" transform="matrix(0.8019187275812494,-0.5974331379781925,0.5974331379781925,0.8019187275812494,127.34220548496151,111.50725228404923)" fill="#ffa6d5"></use><use xlink:href="#bbburst-shape-10" width="42.896900575667125" opacity="0.1787592059934895" transform="matrix(0.9404972876145924,0.339801194803071,-0.339801194803071,0.9404972876145924,764.6324289006737,-256.67212349781346)" fill="none" stroke="#ffbd9b"></use><use xlink:href="#bbburst-shape-4" width="20.803098991567172" opacity="0.8283302954684925" transform="matrix(0.9879344397244201,-0.1548726664276053,0.1548726664276053,0.9879344397244201,311.1301507479725,-68.98045855795584)" fill="#ff5c58"></use><use xlink:href="#bbburst-shape-4" width="24.003995366953248" opacity="0.7087829687569305" transform="matrix(0.8697708148050537,0.4934559045278039,-0.4934559045278039,0.8697708148050537,478.75253912744574,-27.775128105127635)" fill="#ffa6d5"></use><use xlink:href="#bbburst-shape-6" width="17.913947740196324" opacity="0.7938465297831647" transform="matrix(0.9950503587564125,0.09937194543096635,-0.09937194543096635,0.9950503587564125,515.6709193295064,38.628710949934714)" fill="#2c2891"></use><use xlink:href="#bbburst-shape-6" width="31.772248292472128" opacity="0.4364468828589465" transform="matrix(0.9414056684004829,0.3372763963034472,-0.3372763963034472,0.9414056684004829,341.88503669199673,-162.48417371004055)" fill="#ff5c58"></use><use xlink:href="#bbburst-shape-1" width="18.943699339011772" opacity="0.7531388036232634" transform="matrix(0.9520418171078142,0.30596793700982977,-0.30596793700982977,0.9520418171078142,595.4195077339681,-58.57165139313264)" fill="#ffbd9b"></use><use xlink:href="#bbburst-shape-6" width="48.73537115224649" opacity="0.22903098887006135" transform="matrix(0.7223242037457691,-0.6915545854688845,0.6915545854688845,0.7223242037457691,-146.5769663415741,-110.15754563519607)" fill="#ff5c58"></use><use xlink:href="#bbburst-shape-1" width="31.828723689944848" opacity="0.37008849649086795" transform="matrix(0.9863623984421235,0.16458802793490684,-0.16458802793490684,0.9863623984421235,202.16338605688168,-134.4616164337595)" fill="#2c2891"></use><use xlink:href="#bbburst-shape-4" width="31.789829414535372" opacity="0.23621273179546898" transform="matrix(0.7858485803311049,0.6184189589522517,-0.6184189589522517,0.7858485803311049,762.039437679075,395.1616356979597)" fill="#ffa6d5"></use><use xlink:href="#bbburst-shape-4" width="34.75752843371534" opacity="0.18952566530638937" transform="matrix(0.8408235813239047,0.5413092508812714,-0.5413092508812714,0.8408235813239047,247.14979440557568,138.97968094765116)" fill="#ffa6d5"></use><use xlink:href="#bbburst-shape-1" width="13.57870908309872" opacity="0.894185108701813" transform="matrix(0.976520749655381,0.21542336338589807,-0.21542336338589807,0.976520749655381,523.7124108160976,-9.823494071002642)" fill="#ffa6d5"></use><use xlink:href="#bbburst-shape-10" width="31.48512538622853" opacity="0.1631012968014086" transform="matrix(0.7428167844752692,-0.6694947533041775,0.6694947533041775,0.7428167844752692,481.2629594727419,5.306733570002223)" fill="none" stroke="#ffa6d5"></use><use xlink:href="#bbburst-shape-4" width="18.655203029992293" opacity="0.7317842945229505" transform="matrix(0.986900219961659,-0.16133181905510452,0.16133181905510452,0.986900219961659,444.82643118114436,-15.840878300015163)" fill="#ffbd9b"></use><use xlink:href="#bbburst-shape-1" width="37.779185271537" opacity="0.06243678052836543" transform="matrix(0.9176845819008557,0.3973097131224602,-0.3973097131224602,0.9176845819008557,298.1415979786066,-319.1284407356004)" fill="#ffbd9b"></use><use xlink:href="#bbburst-shape-6" width="30.44523495676998" opacity="0.3595410037149118" transform="matrix(0.8293018453359214,0.5588009031152646,-0.5588009031152646,0.8293018453359214,786.8428757677866,288.0399031743626)" fill="#ff5c58"></use><use xlink:href="#bbburst-shape-4" width="27.372835337559195" opacity="0.6162941119752041" transform="matrix(0.9249363365908976,0.38012205047038494,-0.38012205047038494,0.9249363365908976,711.849910840034,16.57900935828968)" fill="#ffa6d5"></use><use xlink:href="#bbburst-shape-4" width="24.075579048731257" opacity="0.5603646850799671" transform="matrix(0.717097993109532,0.696972358331578,-0.696972358331578,0.717097993109532,857.6427429895848,167.8918608684719)" fill="#ff5c58"></use><use xlink:href="#bbburst-shape-1" width="25.60852455300233" opacity="0.5387813914189156" transform="matrix(0.9760996254415557,0.21732354040198812,-0.21732354040198812,0.9760996254415557,268.0794033764858,29.13075049172852)" fill="#ffa6d5"></use><use xlink:href="#bbburst-shape-1" width="27.099149104310126" opacity="0.6423858288277361" transform="matrix(0.7853703718139856,0.6190261537905826,-0.6190261537905826,0.7853703718139856,584.5114419237284,-74.65216698255523)" fill="#ffa6d5"></use><use xlink:href="#bbburst-shape-6" width="20.672633577916198" opacity="0.7501324687043122" transform="matrix(0.9965475115005711,0.08302443810119517,-0.08302443810119517,0.9965475115005711,366.2413150084603,-96.59337054717832)" fill="#ffa6d5"></use><use xlink:href="#bbburst-shape-6" width="40.391688288579005" opacity="0.14705809388403746" transform="matrix(0.9525595096560943,-0.30435239536389613,0.30435239536389613,0.9525595096560943,121.57029496203614,-333.2451683335909)" fill="#ffa6d5"></use><use xlink:href="#bbburst-shape-4" width="32.15857776234817" opacity="0.5505980863909897" transform="matrix(0.8687457802408007,-0.4952582854569949,0.4952582854569949,0.8687457802408007,267.6941857116448,-125.35074160202873)" fill="#ffbd9b"></use><use xlink:href="#bbburst-shape-10" width="33.57618804230244" opacity="0.19648877469720527" transform="matrix(0.9642993415445822,0.26481461420526875,-0.26481461420526875,0.9642993415445822,529.1091213031902,369.2646034706657)" fill="none" stroke="#ffbd9b"></use><use xlink:href="#bbburst-shape-10" width="27.306186718829053" opacity="0.08440036815129104" transform="matrix(0.8143640231816213,-0.5803544070199207,0.5803544070199207,0.8143640231816213,357.0938838009953,-277.8476962613097)" fill="none" stroke="#ff5c58"></use><use xlink:href="#bbburst-shape-4" width="26.128166129254076" opacity="0.6514146879588855" transform="matrix(0.9832058634127222,0.18249994561874103,-0.18249994561874103,0.9832058634127222,435.6768378143744,159.29916557890863)" fill="#ff5c58"></use><use xlink:href="#bbburst-shape-6" width="31.308198822973058" opacity="0.19476429223502245" transform="matrix(0.7316949301351243,-0.6816322536489566,0.6816322536489566,0.7316949301351243,193.1719605172646,-236.027050488197)" fill="#ffbd9b"></use><use xlink:href="#bbburst-shape-4" width="31.023817214437607" opacity="0.28232026169682756" transform="matrix(0.7736560924974456,0.6336057532421749,-0.6336057532421749,0.7736560924974456,477.50858073101006,358.99765070555713)" fill="#ffa6d5"></use><use xlink:href="#bbburst-shape-10" width="32.289503439156334" opacity="0.3277164793830224" transform="matrix(0.8669167387864571,-0.498452974724651,0.498452974724651,0.8669167387864571,133.53299748022093,-236.55219559083918)" fill="none" stroke="#ff5c58"></use><use xlink:href="#bbburst-shape-10" width="14.27712963823006" opacity="0.9213905025267556" transform="matrix(0.7694960539975976,0.6386515661001125,-0.6386515661001125,0.7694960539975976,656.4780312314542,52.87251355194559)" fill="none" stroke="#2c2891"></use><use xlink:href="#bbburst-shape-1" width="23.949431386679308" opacity="0.7272218545510147" transform="matrix(0.8271187093546627,-0.5620272596907351,0.5620272596907351,0.8271187093546627,56.473246482056965,132.68773871061586)" fill="#ffa6d5"></use><use xlink:href="#bbburst-shape-1" width="11.899965567954403" opacity="0.8463727706058327" transform="matrix(0.9180921902663163,0.3963669135687263,-0.3963669135687263,0.9180921902663163,527.7788299799943,94.75557878765608)" fill="#2c2891"></use><use xlink:href="#bbburst-shape-6" width="15.34817181706017" opacity="0.8082642572598149" transform="matrix(0.9198644764699745,0.3922363381032153,-0.3922363381032153,0.9198644764699745,629.7926126057844,-3.378855745675878)" fill="#ff5c58"></use><use xlink:href="#bbburst-shape-8" width="37.68426586444739" opacity="0.1708558360546868" transform="matrix(0.9647001256495402,-0.26335084501812656,0.26335084501812656,0.9647001256495402,535.4939181699668,287.6483727652831)" fill="none" stroke="#ff5c58"></use><use xlink:href="#bbburst-shape-6" width="11.940217056110072" opacity="0.9471520870091593" transform="matrix(0.9995415116128495,0.030278153224722385,-0.030278153224722385,0.9995415116128495,429.4460347483546,4.753804014639115)" fill="#ff5c58"></use><use xlink:href="#bbburst-shape-4" width="22.5400048066219" opacity="0.44529048303487107" transform="matrix(0.9251728986165489,-0.37954592299938217,0.37954592299938217,0.9251728986165489,102.67558606480907,244.1350164826461)" fill="#2c2891"></use><use xlink:href="#bbburst-shape-10" width="31.329753447662057" opacity="0.559099974100483" transform="matrix(0.9994396361921166,-0.033472579944927076,0.033472579944927076,0.9994396361921166,394.7827142401668,197.71749317891317)" fill="none" stroke="#ff5c58"></use><use xlink:href="#bbburst-shape-10" width="15.061627880316134" opacity="0.8713923319516992" transform="matrix(0.9414534136915086,0.33714309995698455,-0.33714309995698455,0.9414534136915086,570.9481276800941,59.41219965483373)" fill="none" stroke="#ff5c58"></use><use xlink:href="#bbburst-shape-8" width="37.5220898500429" opacity="0.05302226581531666" transform="matrix(0.9791124292710636,-0.20331957812005372,0.20331957812005372,0.9791124292710636,656.3845241070318,-221.92712579399176)" fill="none" stroke="#2c2891"></use><use xlink:href="#bbburst-shape-10" width="16.407134174826666" opacity="0.6869662558322174" transform="matrix(0.7793407454728924,-0.6266003530526905,0.6266003530526905,0.7793407454728924,265.9186871813745,162.14816655442462)" fill="none" stroke="#ffa6d5"></use><use xlink:href="#bbburst-shape-8" width="41.551193891278864" opacity="0.1815175409059886" transform="matrix(0.9670915924853085,0.25442848060747825,-0.25442848060747825,0.9670915924853085,391.7121002327503,365.0376077736445)" fill="none" stroke="#2c2891"></use><use xlink:href="#bbburst-shape-10" width="29.479531325297145" opacity="0.5244214910737934" transform="matrix(0.9963046976115612,0.08588916996417963,-0.08588916996417963,0.9963046976115612,527.1637435350882,185.26778939790967)" fill="none" stroke="#ffa6d5"></use><use xlink:href="#bbburst-shape-4" width="38.46161036592095" opacity="0.3832293028541792" transform="matrix(0.9876002901007432,0.15698938496894535,-0.15698938496894535,0.9876002901007432,711.1733965761829,76.42370115249395)" fill="#2c2891"></use><use xlink:href="#bbburst-shape-10" width="19.706176728738615" opacity="0.7074551064667958" transform="matrix(0.8462816377905387,0.5327357595830822,-0.5327357595830822,0.8462816377905387,734.310820244587,79.60404136235246)" fill="none" stroke="#ff5c58"></use><use xlink:href="#bbburst-shape-4" width="13.882578175409558" opacity="0.8102930727765629" transform="matrix(0.849719670792838,-0.5272347494880348,0.5272347494880348,0.849719670792838,98.4660245458266,74.04895311133845)" fill="#ffa6d5"></use><use xlink:href="#bbburst-shape-4" width="26.725100587617355" opacity="0.5002158931293491" transform="matrix(0.8025912401126849,0.5965293800764406,-0.5965293800764406,0.8025912401126849,573.0581835121895,289.1325736292084)" fill="#2c2891"></use><use xlink:href="#bbburst-shape-4" width="24.453136982357055" opacity="0.4802685134392384" transform="matrix(0.7379007532169379,0.6749092371585054,-0.6749092371585054,0.7379007532169379,621.5964579297995,-133.94424054185566)" fill="#ffa6d5"></use><use xlink:href="#bbburst-shape-10" width="21.353205929917394" opacity="0.6703045948808364" transform="matrix(0.7493107139697376,-0.662218584706109,0.662218584706109,0.7493107139697376,193.41280867160907,240.07058122606082)" fill="none" stroke="#ffa6d5"></use><use xlink:href="#bbburst-shape-10" width="35.193978269980285" opacity="0.1779873040237101" transform="matrix(0.9666204453507174,-0.2562126355783038,0.2562126355783038,0.9666204453507174,-87.3926787586195,-20.62710104098403)" fill="none" stroke="#ff5c58"></use><use xlink:href="#bbburst-shape-10" width="28.445762599031205" opacity="0.29789740006001186" transform="matrix(0.9928262196285904,-0.11956628963885231,0.11956628963885231,0.9928262196285904,476.70340278864796,-279.32770011156373)" fill="none" stroke="#2c2891"></use><use xlink:href="#bbburst-shape-6" width="30.251133953537476" opacity="0.41002871841885813" transform="matrix(0.9790280212207549,-0.20372563330266744,0.20372563330266744,0.9790280212207549,366.0858371515526,269.5240407858022)" fill="#2c2891"></use><use xlink:href="#bbburst-shape-10" width="42.14869419178848" opacity="0.36253085173269795" transform="matrix(0.8126827728525832,0.5827063674859206,-0.5827063674859206,0.8126827728525832,890.6358103402649,-20.058681238532984)" fill="none" stroke="#ffbd9b"></use><use xlink:href="#bbburst-shape-4" width="36.86497888285646" opacity="-0.08189962159261133" transform="matrix(0.9237554104692262,-0.3829829521386449,0.3829829521386449,0.9237554104692262,-117.20334999453732,379.08703419590097)" fill="#ffa6d5"></use><use xlink:href="#bbburst-shape-10" width="31.479019886299366" opacity="0.6137725637793452" transform="matrix(0.9517736090736644,0.30680123381579083,-0.30680123381579083,0.9517736090736644,391.22009095529916,-114.49708293117476)" fill="none" stroke="#ffbd9b"></use><use xlink:href="#bbburst-shape-10" width="14.72032121469734" opacity="0.7639049317401707" transform="matrix(0.7829990172438233,0.6220229408914169,-0.6220229408914169,0.7829990172438233,540.2029100576702,55.561521828342336)" fill="none" stroke="#ff5c58"></use><use xlink:href="#bbburst-shape-1" width="33.06443332958927" opacity="0.06795383207252992" transform="matrix(0.9189602927531046,-0.3943500733398286,0.3943500733398286,0.9189602927531046,7.993910808021013,396.6240450025791)" fill="#2c2891"></use><use xlink:href="#bbburst-shape-8" width="28.831851331673278" opacity="0.636038762695925" transform="matrix(0.7927144527068923,0.6095931401103626,-0.6095931401103626,0.7927144527068923,473.0646004778142,36.259295398951735)" fill="none" stroke="#ffa6d5"></use><use xlink:href="#bbburst-shape-8" width="27.90379279545327" opacity="0.5888942465248141" transform="matrix(0.9650728188734359,-0.2619817823278565,0.2619817823278565,0.9650728188734359,112.15361142024553,91.54253699903609)" fill="none" stroke="#2c2891"></use><use xlink:href="#bbburst-shape-6" width="42.35490118407435" opacity="0.4100805415078922" transform="matrix(0.8026473758691022,-0.5964538456665731,0.5964538456665731,0.8026473758691022,190.11761867612321,-169.92824757621133)" fill="#ff5c58"></use><use xlink:href="#bbburst-shape-4" width="35.35664943435884" opacity="0.45858850982261956" transform="matrix(0.8572775283846211,0.5148545807572806,-0.5148545807572806,0.8572775283846211,788.0041886402006,191.0419229926581)" fill="#2c2891"></use><use xlink:href="#bbburst-shape-10" width="30.059932426110798" opacity="0.5345723672340736" transform="matrix(0.9267374718770555,0.37570953969645743,-0.37570953969645743,0.9267374718770555,733.2045778848686,-47.87069666365983)" fill="none" stroke="#ff5c58"></use><use xlink:href="#bbburst-shape-6" width="19.978072738479824" opacity="0.6905442698815996" transform="matrix(0.9991824769728931,0.04042743759273004,-0.04042743759273004,0.9991824769728931,267.65284541277356,14.04458252191938)" fill="#ffbd9b"></use><use xlink:href="#bbburst-shape-4" width="31.856268056150505" opacity="0.30525812777194994" transform="matrix(0.9235493351161483,-0.38347962867213725,0.38347962867213725,0.9235493351161483,-21.55657971686705,219.73213884743637)" fill="#ffa6d5"></use><use xlink:href="#bbburst-shape-6" width="33.51316839740465" opacity="0.4977909935143878" transform="matrix(0.7425025581479674,0.669843228780977,-0.669843228780977,0.7425025581479674,551.3311729501462,-108.78214597043109)" fill="#ffa6d5"></use><use xlink:href="#bbburst-shape-6" width="26.84615569626919" opacity="0.6592269846883375" transform="matrix(0.8596873700792573,-0.5108205416055722,0.5108205416055722,0.8596873700792573,319.5069057384643,-9.054542724310863)" fill="#2c2891"></use><use xlink:href="#bbburst-shape-6" width="31.76188503537593" opacity="0.43916006330691026" transform="matrix(0.9802250045046276,-0.1978861807805255,0.1978861807805255,0.9802250045046276,510.98494915973464,-135.164612355561)" fill="#ff5c58"></use><use xlink:href="#bbburst-shape-1" width="17.271597612373398" opacity="0.8913243493504669" transform="matrix(0.8618042017158037,-0.507241084598819,0.507241084598819,0.8618042017158037,140.95060625276616,55.460807541884265)" fill="#ffa6d5"></use><use xlink:href="#bbburst-shape-6" width="19.325194265601528" opacity="0.8187299020346599" transform="matrix(0.9204442618722604,0.39087384254568613,-0.39087384254568613,0.9204442618722604,567.7886581098093,107.04235945195677)" fill="#2c2891"></use><use xlink:href="#bbburst-shape-6" width="47.93391358112301" opacity="0.14178182319785138" transform="matrix(0.8415500694927042,0.5401791189381766,-0.5401791189381766,0.8415500694927042,319.1027604963409,319.7502073047993)" fill="#2c2891"></use><use xlink:href="#bbburst-shape-10" width="40.368215101933316" opacity="0.31061536617034236" transform="matrix(0.9935254147732433,-0.11361007965693382,0.11361007965693382,0.9935254147732433,181.76992785806044,-265.1376055508779)" fill="none" stroke="#ff5c58"></use><use xlink:href="#bbburst-shape-8" width="33.113120027541356" opacity="0.31412985609110733" transform="matrix(0.9955402930418995,0.09433729342125957,-0.09433729342125957,0.9955402930418995,121.09354965991841,-71.64180111581186)" fill="none" stroke="#2c2891"></use><use xlink:href="#bbburst-shape-10" width="18.24899970985544" opacity="0.7234987060067597" transform="matrix(0.7813018186204259,0.6241534011926997,-0.6241534011926997,0.7813018186204259,646.2173306664391,-42.58680694170829)" fill="none" stroke="#ff5c58"></use><use xlink:href="#bbburst-shape-10" width="30.998565215504016" opacity="0.5882903287311597" transform="matrix(0.9994067960326659,-0.03443916438767581,0.03443916438767581,0.9994067960326659,499.9792140303805,-131.9710735620552)" fill="none" stroke="#ff5c58"></use><use xlink:href="#bbburst-shape-8" width="21.94626030139046" opacity="0.5924402111762859" transform="matrix(0.9975949141165047,0.06931368788979228,-0.06931368788979228,0.9975949141165047,426.0874860574647,-182.96406887143394)" fill="none" stroke="#2c2891"></use><use xlink:href="#bbburst-shape-10" width="36.61893858282974" opacity="-0.08896661423092023" transform="matrix(0.7763926042775015,0.6302495728068359,-0.6302495728068359,0.7763926042775015,290.9768511830958,-268.2025792376832)" fill="none" stroke="#ffa6d5"></use><use xlink:href="#bbburst-shape-4" width="34.63488146991816" opacity="0.0692204987037538" transform="matrix(0.7300767379670994,-0.6833651708122966,0.6833651708122966,0.7300767379670994,471.4816910285055,338.15167480030965)" fill="#2c2891"></use><use xlink:href="#bbburst-shape-6" width="30.423515415363603" opacity="0.5487308006726913" transform="matrix(0.8614748064957403,-0.5078003128919152,0.5078003128919152,0.8614748064957403,6.427329233476939,-35.78685779594389)" fill="#2c2891"></use><use xlink:href="#bbburst-shape-4" width="36.04951221297823" opacity="0.19013722949777656" transform="matrix(0.9833532497539507,0.18170411717499513,-0.18170411717499513,0.9833532497539507,431.93819356876634,-360.2952533055501)" fill="#2c2891"></use><use xlink:href="#bbburst-shape-10" width="23.398761827073685" opacity="0.6166522093474502" transform="matrix(0.8238112998872597,0.5668641302623263,-0.5668641302623263,0.8238112998872597,492.7113705482623,183.35952380632222)" fill="none" stroke="#ffa6d5"></use><use xlink:href="#bbburst-shape-4" width="42.11219606589096" opacity="0.24096931784673592" transform="matrix(0.7479148286708717,-0.6637947039968162,0.6637947039968162,0.7479148286708717,460.25385880561777,107.9637458929468)" fill="#2c2891"></use><use xlink:href="#bbburst-shape-6" width="35.4358535703637" opacity="0.16276838894865697" transform="matrix(0.8125475816955571,-0.5828948682916174,0.5828948682916174,0.8125475816955571,-193.04072983009883,-64.96721435859402)" fill="#ff5c58"></use><use xlink:href="#bbburst-shape-4" width="31.972082570627208" opacity="0.34993742830356145" transform="matrix(0.7184384657939613,0.6955905195354657,-0.6955905195354657,0.7184384657939613,374.70822927606696,118.71360908585132)" fill="#2c2891"></use><use xlink:href="#bbburst-shape-1" width="15.492395364522151" opacity="0.8581178333030827" transform="matrix(0.9971263376314935,0.07575662876346102,-0.07575662876346102,0.9971263376314935,463.04206356168436,-48.80399226067357)" fill="#ffa6d5"></use><use xlink:href="#bbburst-shape-6" width="14.778265034410216" opacity="0.9775986717266594" transform="matrix(0.793252005241679,-0.6088934686626678,0.6088934686626678,0.793252005241679,140.53688944578653,86.34490661371382)" fill="#2c2891"></use><use xlink:href="#bbburst-shape-6" width="18.750202360159324" opacity="0.7146041940209867" transform="matrix(0.9933380333535342,0.11523693632396205,-0.11523693632396205,0.9933380333535342,455.70394198970484,128.61119021375117)" fill="#ffa6d5"></use><use xlink:href="#bbburst-shape-10" width="32.03249171441124" opacity="0.2750392551194246" transform="matrix(0.8328901634087178,-0.5534383214930091,0.5534383214930091,0.8328901634087178,447.67431942390505,239.05952818923947)" fill="none" stroke="#ff5c58"></use><use xlink:href="#bbburst-shape-10" width="13.548778990399983" opacity="0.9002406907847105" transform="matrix(0.7769610818325762,0.629548629827397,-0.629548629827397,0.7769610818325762,619.3796336645687,49.21970808039606)" fill="none" stroke="#2c2891"></use><use xlink:href="#bbburst-shape-1" width="14.776507715925462" opacity="0.840025509767849" transform="matrix(0.7464561225427746,0.6654346377507007,-0.6654346377507007,0.7464561225427746,732.4551630047239,101.5963635255763)" fill="#ffa6d5"></use><use xlink:href="#bbburst-shape-4" width="19.716699632161106" opacity="0.7394438836954847" transform="matrix(0.9982811554334783,-0.058606609750092784,0.058606609750092784,0.9982811554334783,293.68200341765527,93.00838776421142)" fill="#ffa6d5"></use><use xlink:href="#bbburst-shape-10" width="17.723884049967317" opacity="0.8100357901454363" transform="matrix(0.9349095681560962,0.35488603715866573,-0.35488603715866573,0.9349095681560962,560.1825684924522,-58.37714518793763)" fill="none" stroke="#ffa6d5"></use><use xlink:href="#bbburst-shape-4" width="28.10269134659245" opacity="0.4104530101371746" transform="matrix(0.8923341996568109,0.45137531625337995,-0.45137531625337995,0.8923341996568109,730.8141397490207,-172.71368364451445)" fill="#ffbd9b"></use><use xlink:href="#bbburst-shape-10" width="31.10178647282185" opacity="0.3571564462558139" transform="matrix(0.9686485696699625,0.24843499849323933,-0.24843499849323933,0.9686485696699625,451.2737847576271,296.06413919650055)" fill="none" stroke="#2c2891"></use><use xlink:href="#bbburst-shape-8" width="11.852392609000153" opacity="0.912569221652191" transform="matrix(0.9149570419701984,-0.40355124996602915,0.40355124996602915,0.9149570419701984,239.8477340350642,75.17952652440192)" fill="none" stroke="#ffa6d5"></use><use xlink:href="#bbburst-shape-1" width="26.9700300748974" opacity="0.4790654096790733" transform="matrix(0.760978929342721,-0.648776594134226,0.648776594134226,0.760978929342721,-99.78175662836065,59.235662001803746)" fill="#2c2891"></use><use xlink:href="#bbburst-shape-10" width="25.132501445559193" opacity="0.6127678881579828" transform="matrix(0.7636287080625289,-0.6456556328436646,0.6456556328436646,0.7636287080625289,50.42688609699866,256.5687342149311)" fill="none" stroke="#ffa6d5"></use><use xlink:href="#bbburst-shape-6" width="35.893289314987356" opacity="0.17614982364269427" transform="matrix(0.7366843740527628,-0.6762367433277263,0.6762367433277263,0.7366843740527628,475.9175006468935,207.5004507953629)" fill="#ffa6d5"></use><use xlink:href="#bbburst-shape-6" width="16.475511554097157" opacity="0.7602362505897515" transform="matrix(0.7727041668602207,-0.6347663117375183,0.6347663117375183,0.7727041668602207,111.3898112088093,200.25314889100156)" fill="#2c2891"></use></svg>